<?xml version="1.0" encoding="UTF-8"?> <svg xmlns="http://www.w3.org/2000/svg" xmlns:xlink="http://www.w3.org/1999/xlink" version="1.2" viewBox="-25 2 400 100"><defs><clipPath><path d="m0 0h593.91v841.89h-593.91z"></path></clipPath><clipPath id="clip2"><rect viewBox="0 0 594 842"></rect></clipPath><g clip-path="url(#clip2)"></g></defs><g transform="translate(-122.48 -105.52)"><path d="m602.64 850.95h-1208v-860h1208z" fill="none" stroke="#211e1e" stroke-miterlimit="10"></path><path d="m462.9 181.51-332.91 4e-3v-4.3907h332.91z" fill="#eb1c23"></path><g fill="#211e1e"><path d="m140.15 156.63c0 4.2305 0 7.5391 0.22656 9.3945 0.12891 1.2774 0.40234 2.2461 1.7188 2.4219 0.62109 0.0937 1.5898 0.17578 2.1992 0.17578 0.58203 0 0.75781 0.13281 0.75781 0.35547 0 0.30859-0.30859 0.4414-0.97266 0.4414-2.7773 0-5.5508-0.13281-6.7031-0.13281-1.1406 0-3.9258 0.13281-5.5977 0.13281-0.61328 0-0.92578-0.0898-0.92578-0.4414 0-0.22266 0.17578-0.35547 0.66016-0.35547 0.65625 0 1.1914-0.082 1.5859-0.17578 0.88281-0.17578 1.1094-1.1445 1.2852-2.4219 0.21485-1.8555 0.21485-5.1641 0.21485-9.3945v-7.7656c0-6.6953 0-7.9375-0.0898-9.3477-0.0898-1.4961-0.4414-2.1953-1.8867-2.5078-0.35937-0.0898-1.1094-0.13281-1.7305-0.13281-0.43359 0-0.74218-0.0898-0.74218-0.35157 0-0.35547 0.35156-0.4414 1.0156-0.4414 1.1406 0 2.4219 0.043 3.5625 0.043 1.1524 0.043 2.1641 0.082 2.7812 0.082 1.6719 0 10.629 0 11.648-0.0391 0.82422-0.043 1.3594-0.043 1.8008-0.17968 0.26953-0.082 0.48438-0.25782 0.70313-0.25782 0.17578 0 0.3125 0.17579 0.3125 0.39454 0 0.30859-0.23047 0.83203-0.35157 1.9805-0.0508 0.44532-0.13672 3.043-0.21875 3.5742-0.0469 0.35157-0.13672 0.61719-0.44531 0.61719-0.30469 0-0.39453-0.21484-0.44141-0.70703 0-0.35156 0-1.0547-0.26171-1.6719-0.30469-0.62109-1.2383-1.2773-2.918-1.3242l-6.7812-0.12891c-0.26953 0-0.40625 0.12891-0.40625 0.61719v11.023c0 0.26172 0.0508 0.39844 0.3164 0.39844l5.6406-0.0469c0.75 0 1.3711 0 1.9844-0.0508 0.83985-0.0391 1.457-0.21875 1.8906-0.78907 0.22265-0.26562 0.3125-0.4414 0.58203-0.4414 0.17578 0 0.26172 0.13281 0.26172 0.39453 0 0.26953-0.21485 1.3711-0.34766 2.7383-0.0937 0.88281-0.18359 2.9102-0.18359 3.2148 0 0.39844 0 0.83594-0.4375 0.83594-0.26563 0-0.35938-0.30469-0.35938-0.61328s-0.0859-0.83594-0.25781-1.3672c-0.22266-0.61719-0.88281-1.4141-2.2461-1.5859-1.1016-0.13671-5.7774-0.13671-6.5274-0.13671-0.22656 0-0.3164 0.0898-0.3164 0.40234z"></path><path d="m158.5 151.91c0-5.6914 0-6.7461-0.0508-7.9336-0.0781-1.2852-0.47656-1.7227-1.3125-1.9844-0.44922-0.13672-0.92578-0.17578-1.4102-0.17578-0.40235 0-0.625-0.0937-0.625-0.44922 0-0.21875 0.3125-0.30468 0.92968-0.30468 1.4492 0 4.1016 0.0859 5.1992 0.0859 0.97266 0 3.4883-0.0859 4.9922-0.0859 0.48047 0 0.78516 0.0859 0.78516 0.30468 0 0.35547-0.22266 0.44922-0.61329 0.44922-0.39843 0-0.70312 0.0391-1.1523 0.12891-1.0586 0.16797-1.3633 0.70312-1.4492 2.0312-0.0898 1.1875-0.0898 2.2422-0.0898 7.9336v6.6133c0 3.6172 0 6.6172 0.17578 8.207 0.12891 1.0117 0.39844 1.5859 1.5391 1.7578 0.53516 0.0898 1.4141 0.13281 1.9883 0.13281 0.44532 0 0.6211 0.22656 0.6211 0.40234 0 0.26172-0.30469 0.38672-0.75391 0.38672-2.5547 0-5.207-0.125-6.2578-0.125-0.88281 0-3.5352 0.125-5.0703 0.125-0.49219 0-0.75391-0.125-0.75391-0.38672 0-0.17578 0.13281-0.40234 0.62109-0.40234 0.58203 0 1.0078-0.043 1.3633-0.13281 0.79688-0.17188 1.0195-0.70703 1.1524-1.8086 0.17187-1.5391 0.17187-4.5391 0.17187-8.1562z"></path><path d="m179.62 154.82c0 0.39844 0.0937 0.52344 0.35156 0.66015 0.83594 0.26563 1.9844 0.35547 2.957 0.35547 1.5391 0 2.0703-0.13281 2.7305-0.61718 1.1914-0.83985 2.5156-2.4727 2.5156-5.5586 0-5.2969-3.6133-6.6602-5.9062-6.6602-0.97265 0-1.9023 0.0469-2.2969 0.13281-0.25781 0.0898-0.35156 0.21875-0.35156 0.53125zm-4.9375-2.9102c0-5.6914 0-6.7461-0.043-7.9375-0.0937-1.2812-0.44922-1.6758-1.6836-2.0273-0.30859-0.0898-0.96875-0.12891-1.5352-0.12891-0.39844 0-0.66406-0.13672-0.66406-0.40234 0-0.26563 0.30859-0.35156 0.88281-0.35156 2.0234 0 4.4961 0.0859 5.2891 0.0859 1.3242 0 4.8555-0.0859 6.043-0.0859 2.4727 0 5.293 0.22265 7.3633 1.5859 1.1055 0.75 2.7344 2.6445 2.7344 5.1602 0 2.7773-1.5938 5.25-5.3828 8.2852 3.4414 4.2422 6.1797 7.6328 8.5156 9.9726 2.1523 2.1562 3.5195 2.332 4.1406 2.4727 0.39844 0.082 0.61719 0.082 0.92578 0.082 0.3125 0 0.48438 0.22656 0.48438 0.40234 0 0.30469-0.26172 0.38672-0.73828 0.38672h-3.7109c-2.1641 0-3.2188-0.21484-4.2344-0.74609-1.6797-0.83594-3.1328-2.5977-5.2891-5.5117-1.5469-2.0273-3.1797-4.5391-3.6641-5.1094-0.21875-0.22656-0.4375-0.26953-0.70703-0.26953l-3.4844-0.0859c-0.16796 0-0.30468 0.0859-0.30468 0.30859v0.52734c0 3.4805 0.043 6.3906 0.22265 7.9805 0.12891 1.1094 0.3086 1.8125 1.4961 1.9844 0.57422 0.0898 1.4102 0.13281 1.9023 0.13281 0.30859 0 0.48438 0.22656 0.48438 0.40234 0 0.26172-0.31641 0.38672-0.79688 0.38672-2.2539 0-5.4727-0.125-6.043-0.125-0.75 0-3.2226 0.125-4.7656 0.125-0.48047 0-0.74219-0.125-0.74219-0.38672 0-0.17578 0.12891-0.40234 0.60937-0.40234 0.57813 0 1.0234-0.043 1.3789-0.13281 0.78516-0.17188 1.0039-0.875 1.1406-1.9844 0.17578-1.5898 0.17578-4.543 0.17578-7.9805z"></path><path d="m201.27 168.93c-0.61718-0.26562-0.75781-0.4414-0.75781-1.2812 0-2.0273 0.1875-4.3633 0.23047-4.9766 0-0.57812 0.17578-0.97266 0.48047-0.97266 0.35937 0 0.40234 0.35157 0.40234 0.61719 0 0.48438 0.12891 1.2812 0.35938 1.9375 0.83203 2.7774 3.7383 3.707 6.1641 3.707 3.3555 0 5.3828-2.1133 5.3828-4.7578 0-1.6328-0.39843-3.2695-3.8398-5.2969l-2.25-1.3242c-4.5859-2.6875-6.0859-5.2031-6.0859-8.5078 0-4.5898 4.4062-7.5391 9.793-7.5391 2.5195 0 4.4961 0.35547 5.5117 0.61328 0.35156 0.0898 0.52734 0.21875 0.52734 0.48438 0 0.48437-0.1289 1.5469-0.1289 4.5 0 0.79297-0.17969 1.1914-0.48828 1.1914-0.26563 0-0.39844-0.22265-0.39844-0.65625 0-0.35546-0.17578-1.5039-1.0156-2.4726-0.5664-0.71094-1.8008-1.7617-4.3164-1.7617-2.7812 0-5.293 1.4492-5.293 4.0078 0 1.6758 0.61719 2.9961 4.1016 4.9375l1.5859 0.88281c5.1133 2.8281 6.7031 5.6914 6.7031 9.082 0 2.7812-1.0586 5.0312-3.8828 7.0156-1.8477 1.3242-4.4062 1.5391-6.4766 1.5391-2.2461 0-4.6328-0.21484-6.3086-0.96875"></path><path d="m229.7 143.36-5.7773 0.13282c-2.2461 0.0469-3.1641 0.30859-3.7461 1.1484-0.39844 0.52735-0.57422 1.0117-0.66016 1.2774-0.0898 0.30469-0.18359 0.48437-0.4375 0.48437-0.26562 0-0.35156-0.22656-0.35156-0.61718 0-0.61719 0.74609-4.2344 0.83203-4.543 0.0898-0.48047 0.21875-0.70313 0.44922-0.70313 0.30469 0 0.6914 0.30469 1.668 0.4375 1.1445 0.13281 2.5976 0.17578 3.8828 0.17578h15.738c1.2383 0 2.0781-0.0859 2.6523-0.17578 0.61719-0.082 0.91797-0.17187 1.0508-0.17187 0.26953 0 0.3125 0.21484 0.3125 0.79297 0 0.79296-0.0937 3.5703-0.0937 4.5391-0.0352 0.39844-0.12891 0.61719-0.35157 0.61719-0.30078 0-0.39843-0.17579-0.4414-0.75l-0.0352-0.39844c-0.0898-0.96485-1.1055-2.1133-4.5898-2.1524l-4.8984-0.0937v15.168c0 3.4414 0.043 6.3984 0.22266 8.0274 0.1289 1.0625 0.35937 1.7656 1.5 1.9375 0.53125 0.0898 1.4102 0.13281 1.9883 0.13281 0.4375 0 0.61328 0.22656 0.61328 0.40234 0 0.26172-0.3125 0.38672-0.75781 0.38672-2.5508 0-5.1524-0.125-6.25-0.125-0.88672 0-3.5274 0.125-5.0703 0.125-0.48828 0-0.7539-0.125-0.7539-0.38672 0-0.17578 0.13281-0.40234 0.62109-0.40234 0.56641 0 1.0508-0.043 1.3672-0.13281 0.78906-0.17188 1.0117-0.875 1.1406-1.9844 0.17578-1.582 0.17578-4.5391 0.17578-7.9805z"></path><path d="m266.34 136.26c0.13281-0.75391 0.39453-1.1484 0.75-1.1484 0.35937 0 0.61719 0.21875 1.1914 1.3672l12.039 24.867 11.996-25.176c0.34766-0.70703 0.57031-1.0586 0.97266-1.0586 0.39453 0 0.65234 0.44531 0.78906 1.3672l4.0156 27.25c0.39843 2.7773 0.83593 4.0547 2.1602 4.4531 1.2774 0.39844 2.1524 0.44141 2.7305 0.44141 0.39453 0 0.71094 0.043 0.71094 0.30859 0 0.35547-0.53516 0.48047-1.1406 0.48047-1.1133 0-7.2031-0.125-8.9609-0.26172-1.0195-0.0859-1.2774-0.21875-1.2774-0.48437 0-0.21875 0.17188-0.34766 0.48438-0.48438 0.26172-0.0859 0.39453-0.66015 0.22656-1.8984l-2.6562-19.402h-0.17188l-9.6094 20.02c-1.0234 2.0781-1.2461 2.4688-1.6328 2.4688-0.39453 0-0.83985-0.8789-1.5508-2.1992-1.0547-2.0312-4.5312-8.7734-5.0664-10.016-0.39844-0.92188-3.043-6.4766-4.5898-9.7812h-0.17579l-2.2891 17.551c-0.0976 0.78906-0.13281 1.3594-0.13281 2.0664 0 0.83984 0.56641 1.2344 1.3203 1.4102 0.79688 0.17969 1.4102 0.22266 1.8516 0.22266 0.35547 0 0.66797 0.0859 0.66797 0.30859 0 0.39844-0.40234 0.48047-1.0703 0.48047-1.8438 0-3.8281-0.125-4.625-0.125-0.83203 0-2.9531 0.125-4.3633 0.125-0.44531 0-0.78906-0.082-0.78906-0.48047 0-0.22265 0.26172-0.30859 0.69922-0.30859 0.34765 0 0.66406 0 1.3242-0.13281 1.2383-0.26563 1.582-1.9844 1.8047-3.4805z"></path><path d="m303.74 151.91c0-5.6914 0.0391-6.7461-0.0469-7.9336-0.082-1.3281-0.44141-1.6797-1.6758-2.0312-0.3125-0.0898-0.96875-0.12891-1.5039-0.12891-0.42969 0-0.66016-0.13672-0.66016-0.40234 0-0.26563 0.26953-0.35156 0.84766-0.35156 2.0703 0 4.6758 0.0859 5.8125 0.0859 0.97656 0 3.5781-0.0859 4.9844-0.0859 0.57422 0 0.83985 0.0859 0.83985 0.35156 0 0.26562-0.22657 0.40234-0.61719 0.40234-0.44141 0-0.66016 0.0391-1.1523 0.12891-1.0117 0.16797-1.3203 0.70312-1.4024 2.0312-0.0937 1.1875-0.0937 2.2422-0.0937 7.9336v5.2422c0 5.4727 1.0625 7.5898 2.9531 9.0898 1.7226 1.3711 3.5703 1.5 4.8984 1.5 1.6758 0 3.6562-0.48437 5.2109-1.9844 2.1484-2.0312 2.2422-5.293 2.2422-9.1328v-4.7148c0-5.6914-0.043-6.7461-0.0937-7.9336-0.0781-1.2852-0.39453-1.6797-1.6328-2.0312-0.3086-0.0898-0.96094-0.12891-1.4141-0.12891-0.42968 0-0.65625-0.13672-0.65625-0.40234 0-0.26563 0.27344-0.35156 0.80079-0.35156 1.9805 0 4.582 0.0859 4.6289 0.0859 0.4375 0 3.043-0.0859 4.5352-0.0859 0.53515 0 0.80078 0.0859 0.80078 0.35156 0 0.26562-0.22266 0.40234-0.66406 0.40234-0.44141 0-0.66016 0.0391-1.1445 0.12891-1.0664 0.16797-1.3281 0.70312-1.4141 2.0312-0.043 1.1875-0.0898 2.2422-0.0898 7.9336v4.0117c0 4.1914-0.44141 8.6016-3.6992 11.289-2.7344 2.293-5.6953 2.6875-8.207 2.6875-2.0273 0-6.0352-0.0898-8.8555-2.5547-1.9922-1.7227-3.5312-4.5-3.5312-9.918z"></path><path d="m343.2 143.36-5.7773 0.13282c-2.25 0.0469-3.1719 0.30859-3.75 1.1484-0.39844 0.52735-0.57031 1.0117-0.66016 1.2774-0.0898 0.30469-0.18359 0.48437-0.44531 0.48437-0.25781 0-0.34765-0.22656-0.34765-0.61718 0-0.61719 0.74218-4.2344 0.83593-4.543 0.0937-0.48047 0.21875-0.70313 0.44141-0.70313 0.30859 0 0.70312 0.30469 1.6758 0.4375 1.1484 0.13281 2.5977 0.17578 3.875 0.17578h15.758c1.2266 0 2.0703-0.0859 2.6406-0.17578 0.60937-0.0937 0.92578-0.17187 1.0508-0.17187 0.26953 0 0.30859 0.21484 0.30859 0.79297 0 0.79296-0.0859 3.5703-0.0859 4.5391-0.0508 0.39844-0.13672 0.61719-0.34766 0.61719-0.31641 0-0.39844-0.17579-0.44531-0.75l-0.0469-0.39844c-0.0898-0.96485-1.1016-2.1133-4.5859-2.1524l-4.8945-0.0937v15.168c0 3.4414 0.0469 6.3984 0.21875 8.0274 0.13282 1.0625 0.35547 1.7656 1.5 1.9375 0.52735 0.0898 1.4141 0.13281 1.9922 0.13281 0.42969 0 0.60938 0.22266 0.60938 0.40234 0 0.26172-0.30469 0.38672-0.7461 0.38672-2.5625 0-5.1562-0.125-6.2617-0.125-0.875 0-3.5312 0.125-5.0664 0.125-0.48828 0-0.75391-0.125-0.75391-0.38672 0-0.17578 0.13672-0.40234 0.61719-0.40234 0.57422 0 1.0625-0.043 1.3672-0.13281 0.79687-0.17188 1.0117-0.875 1.1484-1.9844 0.17578-1.582 0.17578-4.5391 0.17578-7.9805z"></path><path d="m364.28 151.91c0-5.6914 0.0391-6.7461-0.0508-7.9336-0.0859-1.3281-0.4375-1.6797-1.668-2.0312-0.31641-0.0898-0.97266-0.12891-1.5078-0.12891-0.4375 0-0.66016-0.13672-0.66016-0.40234 0-0.26563 0.26953-0.35156 0.84766-0.35156 2.0664 0 4.6719 0.0859 5.8086 0.0859 0.96875 0 3.5781-0.0859 4.9844-0.0859 0.57812 0 0.84375 0.0859 0.84375 0.35156 0 0.26562-0.22266 0.40234-0.61719 0.40234-0.44531 0-0.66016 0.0391-1.1484 0.12891-1.0117 0.16797-1.3203 0.70312-1.4102 2.0312-0.0898 1.1875-0.0898 2.2422-0.0898 7.9336v5.2422c0 5.4727 1.0625 7.5898 2.9531 9.0898 1.7188 1.3711 3.5703 1.5 4.8906 1.5 1.6914 0 3.668-0.48437 5.2109-1.9883 2.1602-2.0273 2.2422-5.2891 2.2422-9.1289v-4.7148c0-5.6914-0.0469-6.7461-0.082-7.9336-0.0898-1.2852-0.39843-1.6797-1.6328-2.0312-0.30078-0.0898-0.97265-0.12891-1.4102-0.12891-0.44141 0-0.66016-0.13672-0.66016-0.40234 0-0.26563 0.26562-0.35156 0.79687-0.35156 1.9766 0 4.5742 0.0859 4.6211 0.0859 0.4414 0 3.0469-0.0859 4.543-0.0859 0.52734 0 0.80078 0.0859 0.80078 0.35156 0 0.26562-0.22266 0.40234-0.66406 0.40234-0.44141 0-0.66016 0.0391-1.1445 0.12891-1.0742 0.16797-1.332 0.70312-1.4141 2.0312-0.0469 1.1875-0.0937 2.2422-0.0937 7.9336v4.0117c0 4.1914-0.4414 8.6016-3.707 11.289-2.7227 2.293-5.6797 2.6875-8.1953 2.6875-2.0274 0-6.0391-0.0898-8.8672-2.5586-1.9766-1.7188-3.5195-4.4961-3.5195-9.9141z"></path><path d="m450.41 158.53c0 4.8086 0 7.1875 0.85156 7.8945 0.66016 0.57032 2.1602 0.79297 5.1562 0.79297 2.0664 0 3.5703-0.043 4.5391-1.0625 0.48828-0.48047 0.88281-1.5352 0.97265-2.2422 0.0469-0.35547 0.13672-0.57422 0.44532-0.57422 0.26562 0 0.35156 0.39453 0.35156 0.83593 0 0.44532-0.26953 3.2148-0.58203 4.3203-0.25391 0.83984-0.42969 1.0156-2.4648 1.0156-2.7734 0-5.0312-0.0469-6.9688-0.13281-1.9375-0.043-3.5664-0.0859-5.1523-0.0859-0.44141 0-1.2891 0.043-2.2109 0.043-0.91797 0.043-1.8906 0.082-2.6875 0.082-0.48437 0-0.7539-0.125-0.7539-0.39453 0-0.17187 0.13281-0.39453 0.62109-0.39453 0.57031 0 1.0078-0.043 1.3633-0.13281 0.78906-0.17188 1.0117-0.875 1.1445-1.9844 0.17578-1.582 0.17578-4.543 0.17578-7.9805v-6.6133c0-5.6914 0-6.7461-0.0469-7.9336-0.0781-1.2891-0.4336-1.6797-1.6758-2.0312-0.30469-0.0898-0.78125-0.12891-1.2734-0.12891-0.4375 0-0.66016-0.13672-0.66016-0.40234 0-0.26563 0.26953-0.35156 0.83594-0.35156 1.8125 0 4.2734 0.0859 5.3359 0.0859 0.92969 0 4.1016-0.0859 5.6016-0.0859 0.57422 0 0.84375 0.0859 0.84375 0.35156 0 0.26562-0.21875 0.40234-0.71484 0.40234-0.4336 0-1.0547 0.0391-1.4922 0.12891-1.0586 0.17187-1.3633 0.70312-1.4492 2.0312-0.10547 1.1875-0.10547 2.2422-0.10547 7.9336z"></path></g><path d="m399.79 169.71 14.785-33.406 14.766 33.406h10.285l-25.051-56.695-25.066 56.695z" fill="#eb1c23"></path><g fill="#211e1e"><path d="m207.35 189.72c0.0234 0 0.0469-0.0156 0.0469-0.0586v-0.16406c0-1.2031 0-1.4258-0.0156-1.6797-0.0156-0.26953-0.082-0.39453-0.34375-0.44922-0.0586-0.0156-0.19532-0.0234-0.30469-0.0234-0.0898 0-0.13672-0.0195-0.13672-0.0703 0-0.0586 0.0586-0.0703 0.16797-0.0703 0.42578 0 0.92578 0.0234 1.1406 0.0234 0.19141 0 0.6875-0.0234 0.9961-0.0234 0.10937 0 0.16797 0.0117 0.16797 0.0703 0 0.0508-0.0469 0.0703-0.14844 0.0703-0.0586 0-0.13281 8e-3 -0.22656 0.0234-0.21094 0.0391-0.27735 0.17578-0.29297 0.44922-0.0156 0.25391-0.0156 0.47656-0.0156 1.6797v1.3945c0 0.72656 0 1.3516 0.0391 1.6914 0.0234 0.22265 0.0742 0.39843 0.3086 0.42968 0.11328 0.0117 0.28906 0.0312 0.40625 0.0312 0.0859 0 0.125 0.0234 0.125 0.0625 0 0.0547-0.0625 0.0781-0.15625 0.0781-0.51563 0-1.0117-0.0234-1.2383-0.0234-0.17969 0-0.67969 0.0234-0.98828 0.0234-0.10938 0-0.16797-0.0234-0.16797-0.0781 0-0.0391 0.0352-0.0625 0.1289-0.0625 0.11719 0 0.21485-0.0195 0.28516-0.0312 0.15625-0.0312 0.19531-0.20703 0.22656-0.4375 0.043-0.33203 0.043-0.95703 0.043-1.6836v-0.69922c0-0.0312-0.0234-0.0469-0.0469-0.0469h-3.0274c-0.0234 0-0.0469 8e-3 -0.0469 0.0469v0.69922c0 0.72656 0 1.3516 0.0391 1.6914 0.0273 0.22265 0.0742 0.39843 0.30859 0.42968 0.11328 0.0117 0.28516 0.0312 0.40625 0.0312 0.0859 0 0.125 0.0234 0.125 0.0625 0 0.0547-0.0625 0.0781-0.15625 0.0781-0.51562 0-1.0156-0.0234-1.2344-0.0234-0.1836 0-0.6836 0.0234-1 0.0234-0.10156 0-0.15625-0.0234-0.15625-0.0781 0-0.0391 0.0312-0.0625 0.125-0.0625 0.12109 0 0.21484-0.0195 0.28515-0.0312 0.15625-0.0312 0.19532-0.20703 0.23047-0.4375 0.0391-0.33203 0.0391-0.95703 0.0391-1.6836v-1.3945c0-1.2031 0-1.4258-0.0156-1.6797-0.0156-0.26953-0.0781-0.39453-0.33984-0.44922-0.0625-0.0156-0.19922-0.0234-0.3086-0.0234-0.0859 0-0.13281-0.0195-0.13281-0.0703 0-0.0586 0.0547-0.0703 0.16406-0.0703 0.42578 0 0.92578 0.0234 1.1406 0.0234 0.1875 0 0.6875-0.0234 0.99609-0.0234 0.10938 0 0.16797 0.0117 0.16797 0.0703 0 0.0508-0.0508 0.0703-0.14453 0.0703-0.0625 0-0.13281 8e-3 -0.23047 0.0234-0.21094 0.0391-0.27344 0.17578-0.29297 0.44922-0.0156 0.25391-0.0156 0.47656-0.0156 1.6797v0.16406c0 0.043 0.0234 0.0586 0.0469 0.0586z"></path><path d="m221.84 190.77c0-1.4883-0.89453-2.4062-2.0195-2.4062-0.77344 0-1.6836 0.41407-1.6836 2.0742 0 1.3867 0.78906 2.4766 2.1055 2.4766 0.49219 0 1.5977-0.23047 1.5977-2.1445m-4.7305-0.125c0-1.1484 0.80469-2.6367 2.918-2.6367 1.7578 0 2.8516 0.97265 2.8516 2.5195 0 1.5391-1.125 2.75-2.9219 2.75-2.0273 0-2.8476-1.4375-2.8476-2.6328"></path><path d="m232.23 191.23c0 0.86329 0 1.2891 0.15235 1.4141 0.11718 0.10547 0.38671 0.14453 0.92578 0.14453 0.37109 0 0.64062-8e-3 0.8125-0.19141 0.0898-0.0859 0.16015-0.27734 0.17968-0.40234 4e-3 -0.0625 0.0195-0.10156 0.0781-0.10156 0.0469 0 0.0625 0.0703 0.0625 0.14843 0 0.0781-0.0508 0.57813-0.10547 0.77735-0.0469 0.15234-0.0781 0.17968-0.44141 0.17968-0.5 0-0.90234-8e-3 -1.25-0.0234-0.34765-4e-3 -0.64062-0.0156-0.92578-0.0156-0.0781 0-0.23047 0.0117-0.39843 0.0117-0.16407 4e-3 -0.33985 0.0117-0.48047 0.0117-0.0898 0-0.13672-0.0234-0.13672-0.0703 0-0.0312 0.0234-0.0703 0.11328-0.0703 0.10156 0 0.17969-8e-3 0.24219-0.0234 0.14062-0.0312 0.18359-0.16016 0.20703-0.35547 0.0312-0.28516 0.0312-0.81641 0.0312-1.4336v-1.1875c0-1.0234 0-1.2148-8e-3 -1.4258-0.0156-0.23047-0.0781-0.30078-0.30079-0.36328-0.0547-0.0156-0.14062-0.0234-0.22656-0.0234-0.082 0-0.12109-0.0234-0.12109-0.0742 0-0.0469 0.0469-0.0625 0.14844-0.0625 0.32812 0 0.76953 0.0156 0.96093 0.0156 0.16407 0 0.73438-0.0156 1.0039-0.0156 0.10156 0 0.15234 0.0156 0.15234 0.0625 0 0.0508-0.0391 0.0742-0.1289 0.0742-0.0781 0-0.1875 8e-3 -0.26953 0.0234-0.19141 0.0312-0.24219 0.125-0.26172 0.36328-0.0156 0.21094-0.0156 0.40235-0.0156 1.4258z"></path><path d="m243.72 190.79c0 0.71094 8e-3 1.2226 0.0156 1.3555 0.0117 0.16797 0.0234 0.40625 0.082 0.47656 0.0859 0.12891 0.36328 0.26953 0.91015 0.26953 0.63281 0 1.0977-0.10937 1.5156-0.46094 0.45312-0.37109 0.59765-0.97265 0.59765-1.668 0-0.85156-0.33984-1.4102-0.65234-1.6758-0.64063-0.57422-1.4023-0.64453-1.9453-0.64453-0.14453 0-0.3711 0.0156-0.42578 0.0508-0.0664 0.0195-0.0898 0.0547-0.0898 0.13282-8e-3 0.22656-8e-3 0.78515-8e-3 1.3125zm-0.93359-0.7461c0-1.0234 0-1.2148-8e-3 -1.4258-0.0156-0.23047-0.0781-0.30078-0.30078-0.36328-0.0547-0.0156-0.17578-0.0234-0.27734-0.0234-0.0703 0-0.11719-0.0234-0.11719-0.0703s0.0547-0.0664 0.15625-0.0664c0.36719 0 0.80859 0.0195 1.0039 0.0195 0.21484 0 0.71484-0.0195 1.1328-0.0195 0.87109 0 2.0469 0 2.8047 0.76953 0.34765 0.34765 0.65625 0.91015 0.65625 1.7109 0 0.84766-0.36719 1.4844-0.76172 1.875-0.31641 0.31641-1.0508 0.78907-2.3359 0.78907-0.25 0-0.55078-0.0234-0.82812-0.0352-0.27735-0.0273-0.53125-0.043-0.70313-0.043-0.0781 0-0.23437 0.0117-0.39844 0.0117-0.16797 4e-3 -0.33984 0.0117-0.48437 0.0117-0.0859 0-0.13281-0.0234-0.13281-0.0703 0-0.0312 0.0234-0.0703 0.10937-0.0703 0.10547 0 0.18359-8e-3 0.24609-0.0273 0.14063-0.0273 0.1836-0.15625 0.20704-0.35156 0.0312-0.28516 0.0312-0.81641 0.0312-1.4336z"></path><path d="m256.41 190.05c0-1.0234 0-1.2109-8e-3 -1.4258-0.0156-0.23047-0.0859-0.30859-0.23828-0.35547-0.082-0.0234-0.16407-0.0312-0.25391-0.0312-0.0703 0-0.10938-0.0156-0.10938-0.0781 0-0.043 0.0547-0.0586 0.16407-0.0586 0.26172 0 0.73828 0.0156 0.9375 0.0156 0.17187 0 0.625-0.0156 0.89062-0.0156 0.0899 0 0.14453 0.0156 0.14453 0.0586 0 0.0625-0.043 0.0781-0.10937 0.0781-0.0703 0-0.12891 8e-3 -0.20703 0.0234-0.19141 0.0312-0.2461 0.125-0.26172 0.36328-0.0156 0.21485-0.0156 0.40235-0.0156 1.4258v1.1875c0 0.64844 0 1.1875 0.0312 1.4727 0.0234 0.17969 0.0703 0.28516 0.27735 0.3125 0.0976 0.0195 0.2539 0.0273 0.35547 0.0273 0.0781 0 0.11328 0.0391 0.11328 0.0703 0 0.0469-0.0586 0.0703-0.13672 0.0703-0.45703 0-0.9336-0.0234-1.125-0.0234-0.15625 0-0.63281 0.0234-0.91016 0.0234-0.082 0-0.13281-0.0234-0.13281-0.0703 0-0.0312 0.0234-0.0703 0.10937-0.0703 0.10547 0 0.1836-8e-3 0.2461-0.0273 0.14453-0.0273 0.17969-0.125 0.20703-0.32031 0.0312-0.27735 0.0312-0.81641 0.0312-1.4648z"></path><path d="m267.18 192.27c0.0156 0.52344 0.10547 0.67969 0.23828 0.72656 0.1211 0.043 0.25391 0.0508 0.36329 0.0508 0.0781 0 0.12109 0.0312 0.12109 0.0703 0 0.0586-0.0664 0.0703-0.15625 0.0703-0.45313 0-0.77734-0.0234-0.90625-0.0234-0.0625 0-0.39844 0.0234-0.75 0.0234-0.0937 0-0.16016-8e-3 -0.16016-0.0703 0-0.0391 0.0469-0.0703 0.10938-0.0703 0.0937 0 0.22265-8e-3 0.3164-0.0312 0.1836-0.0469 0.20704-0.23046 0.21485-0.8164l0.0625-3.9883c0-0.13672 0.0508-0.23047 0.12109-0.23047 0.0859 0 0.17969 0.10156 0.30078 0.21875 0.0859 0.0898 1.1289 1.1562 2.1445 2.1484 0.47657 0.46484 1.3984 1.418 1.5039 1.5078h0.0312l-0.0703-2.9883c-8e-3 -0.41407-0.0742-0.53125-0.23828-0.59375-0.10547-0.0391-0.26953-0.0391-0.36719-0.0391-0.082 0-0.10938-0.0352-0.10938-0.0742 0-0.0508 0.0742-0.0625 0.17579-0.0625 0.36328 0 0.73437 0.0156 0.88671 0.0156 0.0781 0 0.33985-0.0156 0.6836-0.0156 0.0898 0 0.15625 0.0117 0.15625 0.0625 0 0.0391-0.0391 0.0742-0.1211 0.0742-0.0703 0-0.125 0-0.21093 0.0234-0.19141 0.0547-0.2461 0.17578-0.25391 0.55469l-0.082 4.2422c0 0.14843-0.0547 0.21093-0.10938 0.21093-0.11718 0-0.21484-0.0703-0.28515-0.14062-0.4336-0.40234-1.3047-1.2344-2.0312-1.9375-0.76172-0.73047-1.4961-1.543-1.6328-1.6641h-0.0234z"></path><path d="m284.7 192.73c0 0.1875 0 0.19141-0.0859 0.23829-0.46484 0.23437-1.1562 0.30078-1.7031 0.30078-1.7109 0-3.2227-0.77344-3.2227-2.6328 0-1.0781 0.58203-1.832 1.2227-2.2031 0.66406-0.38672 1.2891-0.43359 1.875-0.43359 0.48437 0 1.0898 0.0781 1.2344 0.10937 0.14063 0.0234 0.38672 0.0625 0.55469 0.0742 0.0781 8e-3 0.0937 0.0312 0.0937 0.0781 0 0.0781-0.0469 0.26172-0.0469 1.1094 0 0.0977-0.043 0.14844-0.0976 0.14844-0.0469 0-0.0625-0.0312-0.0703-0.0859-0.0156-0.15234-0.0547-0.36719-0.23828-0.55469-0.20312-0.21484-0.72656-0.51562-1.5117-0.51562-0.3789 0-0.85937 8e-3 -1.3438 0.39843-0.39062 0.31641-0.64062 0.8125-0.64062 1.6367 0 1.4492 0.93359 2.5 2.4219 2.5 0.1836 0 0.32422 0 0.48829-0.0664 0.10546-0.0508 0.13671-0.1211 0.13671-0.23828v-0.6211c0-0.33203 0-0.58594-8e-3 -0.78906-8e-3 -0.23047-0.0781-0.30469-0.30078-0.36719-0.0547-0.0156-0.17578-0.0234-0.26953-0.0234-0.0625 0-0.10938-0.0312-0.10938-0.0703 0-0.0547 0.0547-0.0664 0.14844-0.0664 0.36719 0 0.86328 0.0195 1.0703 0.0195 0.21875 0 0.58204-0.0195 0.8125-0.0195 0.0977 0 0.14454 0.0117 0.14454 0.0664 0 0.0391-0.0391 0.0703-0.0859 0.0703-0.0586 0-0.11328 8e-3 -0.19141 0.0234-0.1875 0.0312-0.26172 0.12891-0.26953 0.36719-8e-3 0.20312-8e-3 0.47266-8e-3 0.80469z"></path><path d="m293.39 193.1c-0.10938-0.0469-0.13281-0.082-0.13281-0.23047 0-0.36328 0.0312-0.78125 0.043-0.89453 0-0.10156 0.0274-0.17187 0.082-0.17187 0.0625 0 0.0742 0.0625 0.0742 0.10937 0 0.0859 0.0234 0.22656 0.0586 0.34766 0.15234 0.49609 0.67578 0.66406 1.1133 0.66406 0.60156 0 0.96484-0.37891 0.96484-0.85547 0-0.29297-0.0742-0.58594-0.6914-0.94922l-0.40235-0.23828c-0.82422-0.48047-1.0938-0.93359-1.0938-1.5273 0-0.82031 0.79297-1.3516 1.7578-1.3516 0.45312 0 0.80859 0.0625 0.98828 0.11328 0.0664 0.0117 0.0976 0.0391 0.0976 0.082 0 0.0898-0.0234 0.28125-0.0234 0.80859 0 0.14453-0.0312 0.21485-0.0859 0.21485-0.0469 0-0.0742-0.0391-0.0742-0.1211 0-0.0586-0.0273-0.26562-0.17969-0.4414-0.10156-0.125-0.32422-0.31641-0.77734-0.31641-0.5 0-0.94922 0.26172-0.94922 0.72266 0 0.29687 0.10937 0.53515 0.73828 0.88281l0.28516 0.16015c0.91406 0.50782 1.1992 1.0195 1.1992 1.6289 0 0.5-0.1875 0.90234-0.69532 1.2617-0.33203 0.23437-0.78906 0.27344-1.1641 0.27344-0.40234 0-0.82812-0.0391-1.1328-0.17188"></path><path d="m315.81 190.89c0 1.0117 0 1.5586 0.16797 1.7031 0.13281 0.11718 0.33985 0.17187 0.95703 0.17187 0.41797 0 0.72657-0.0117 0.92578-0.22266 0.0937-0.10156 0.19141-0.32421 0.20704-0.47656 8e-3 -0.0703 0.0234-0.11719 0.0859-0.11719 0.0586 0 0.0625 0.0391 0.0625 0.13672 0 0.0859-0.0547 0.67969-0.11718 0.91016-0.0469 0.17578-0.0899 0.21094-0.5 0.21094-0.57032 0-0.98047-0.0156-1.3359-0.0234-0.35547-0.0117-0.64063-0.0234-0.96485-0.0234-0.0898 0-0.26562 0-0.45312 0.0117-0.18359 0-0.38672 0.0117-0.54688 0.0117-0.10156 0-0.15625-0.0234-0.15625-0.0781 0-0.0391 0.0312-0.0625 0.125-0.0625 0.1211 0 0.21485-0.0195 0.28516-0.0312 0.16016-0.0312 0.19922-0.20703 0.23047-0.4375 0.0391-0.33203 0.0391-0.95703 0.0391-1.6836v-1.3946c0-1.2031 0-1.4258-0.0156-1.6797-0.0156-0.26953-0.0781-0.39453-0.33985-0.44922-0.0664-0.0156-0.15625-0.0234-0.26172-0.0234-0.0859 0-0.13671-0.0195-0.13671-0.0703 0-0.0586 0.0547-0.0703 0.17578-0.0703 0.37109 0 0.87109 0.0234 1.082 0.0234 0.1914 0 0.76953-0.0234 1.0781-0.0234 0.11328 0 0.16797 0.0117 0.16797 0.0703 0 0.0508-0.0508 0.0703-0.14062 0.0703-0.0899 0-0.21485 8e-3 -0.3125 0.0234-0.21094 0.0391-0.27344 0.17578-0.28907 0.44922-0.0195 0.25391-0.0195 0.47656-0.0195 1.6797z"></path><path d="m326.57 190.05c0-1.0234 0-1.2109-4e-3 -1.4258-0.0156-0.23047-0.0859-0.30859-0.23829-0.35547-0.0781-0.0234-0.16796-0.0312-0.2539-0.0312-0.0703 0-0.10938-0.0156-0.10938-0.0781 0-0.043 0.0547-0.0586 0.16407-0.0586 0.26171 0 0.73828 0.0156 0.9375 0.0156 0.17187 0 0.62109-0.0156 0.89062-0.0156 0.0859 0 0.14453 0.0156 0.14453 0.0586 0 0.0625-0.0391 0.0781-0.11328 0.0781-0.0703 0-0.125 8e-3 -0.20312 0.0234-0.19141 0.0312-0.2461 0.125-0.26172 0.36328-0.0156 0.21485-0.0156 0.40235-0.0156 1.4258v1.1875c0 0.64844 0 1.1875 0.0312 1.4727 0.0234 0.17969 0.0703 0.28516 0.27735 0.3125 0.0937 0.0195 0.2539 0.0273 0.35546 0.0273 0.0781 0 0.10938 0.0391 0.10938 0.0703 0 0.0469-0.0547 0.0703-0.13281 0.0703-0.46094 0-0.9336-0.0234-1.125-0.0234-0.15625 0-0.63282 0.0234-0.91016 0.0234-0.0859 0-0.13281-0.0234-0.13281-0.0703 0-0.0312 0.0234-0.0703 0.10937-0.0703 0.10547 0 0.1836-8e-3 0.2461-0.0273 0.14453-0.0273 0.18359-0.125 0.20703-0.32031 0.0273-0.27735 0.0273-0.81641 0.0273-1.4648z"></path><path d="m337.18 188.12c0.0195-0.10937 0.0781-0.17187 0.13672-0.17187 0.0703 0 0.11719 0.0312 0.21094 0.21094l1.8711 3.7539 1.8672-3.7969c0.0586-0.11328 0.11719-0.16797 0.18359-0.16797 0.0547 0 0.13281 0.0703 0.16016 0.21094l0.6289 4.1562c0.0664 0.42187 0.125 0.60156 0.33985 0.66796 0.20312 0.0547 0.30859 0.0625 0.39844 0.0625 0.0625 0 0.10937 0.0234 0.10937 0.0625 0 0.0547-0.0781 0.0781-0.17969 0.0781-0.17578 0-1.1641-0.0312-1.4453-0.0469-0.16406-8e-3 -0.20312-0.0391-0.20312-0.0781 0-0.0352 0.0312-0.0586 0.0781-0.0703 0.043-0.0195 0.0547-0.0977 0.0352-0.28516l-0.39063-2.9141h-0.0234l-1.4961 3.0078c-0.15625 0.31641-0.19922 0.37891-0.27734 0.37891-0.0859 0-0.16797-0.13282-0.27735-0.33985-0.16406-0.30859-0.71875-1.3359-0.79687-1.5273-0.0586-0.125-0.46875-0.97656-0.69922-1.4414h-0.0234l-0.33213 2.6289c-0.0156 0.11719-0.0234 0.20703-0.0234 0.31641 0 0.125 0.0937 0.17578 0.21485 0.19921 0.11718 0.0234 0.17968 0.0312 0.24609 0.0312 0.0625 0 0.10938 0.0312 0.10938 0.0625 0 0.0664-0.0625 0.0781-0.16797 0.0781-0.29297 0-0.60938-0.0234-0.73438-0.0234-0.13281 0-0.46875 0.0234-0.6875 0.0234-0.0742 0-0.1289-0.0117-0.1289-0.0781 0-0.0312 0.0391-0.0625 0.10937-0.0625 0.0547 0 0.10547 0 0.21484-0.0195 0.19141-0.0234 0.25391-0.28906 0.28516-0.51172z"></path><path d="m351.34 190.05c0-1.0234 0-1.2109-8e-3 -1.4258-0.0156-0.23047-0.0899-0.30859-0.23828-0.35547-0.0781-0.0234-0.16407-0.0312-0.25391-0.0312-0.0703 0-0.10938-0.0156-0.10938-0.0781 0-0.043 0.0547-0.0586 0.16407-0.0586 0.26172 0 0.73828 0.0156 0.93359 0.0156 0.17578 0 0.62891-0.0156 0.89453-0.0156 0.0899 0 0.14453 0.0156 0.14453 0.0586 0 0.0625-0.0391 0.0781-0.10937 0.0781-0.0703 0-0.125 8e-3 -0.20703 0.0234-0.19141 0.0312-0.2461 0.125-0.26172 0.36328-0.0156 0.21485-0.0156 0.40235-0.0156 1.4258v1.1875c0 0.64844 0 1.1875 0.0312 1.4727 0.0234 0.17969 0.0703 0.28516 0.27735 0.3125 0.0976 0.0195 0.2539 0.0273 0.35547 0.0273 0.0781 0 0.11328 0.0391 0.11328 0.0703 0 0.0469-0.0586 0.0703-0.13672 0.0703-0.45703 0-0.9336-0.0234-1.1211-0.0234-0.16015 0-0.63671 0.0234-0.91015 0.0234-0.0899 0-0.13672-0.0234-0.13672-0.0703 0-0.0312 0.0234-0.0703 0.11328-0.0703 0.10156 0 0.17969-8e-3 0.24219-0.0273 0.14062-0.0273 0.18359-0.125 0.20703-0.32031 0.0312-0.27735 0.0312-0.81641 0.0312-1.4648z"></path><path d="m362.61 188.51-1.0352 0.0195c-0.40234 0.0117-0.57031 0.0586-0.67578 0.20703-0.0703 0.0977-0.10156 0.18359-0.11718 0.23047-0.0156 0.0547-0.0312 0.0859-0.0781 0.0859-0.0508 0-0.0625-0.0391-0.0625-0.10938 0-0.10937 0.13281-0.75781 0.14844-0.8164 0.0156-0.0859 0.0391-0.125 0.0781-0.125 0.0547 0 0.125 0.0547 0.30469 0.0781 0.20313 0.0273 0.46484 0.0312 0.69531 0.0312h2.8242c0.22266 0 0.3711-0.0156 0.47266-0.0312 0.11328-0.0156 0.16797-0.0312 0.1914-0.0312 0.0469 0 0.0547 0.0391 0.0547 0.14453 0 0.14063-0.0117 0.64063-0.0117 0.8125-0.0117 0.0742-0.0273 0.10938-0.0664 0.10938-0.0547 0-0.0703-0.0273-0.0781-0.13282l-8e-3 -0.0703c-0.0156-0.17578-0.19922-0.38281-0.82422-0.38672l-0.87891-0.0156v2.7226c0 0.61719 8e-3 1.1484 0.043 1.4414 0.0195 0.1875 0.0586 0.31641 0.26563 0.34375 0.0937 0.0195 0.2539 0.0273 0.35547 0.0273 0.0781 0 0.10937 0.0391 0.10937 0.0703 0 0.0469-0.0547 0.0703-0.13281 0.0703-0.45703 0-0.92578-0.0234-1.1211-0.0234-0.16016 0-0.63672 0.0234-0.91407 0.0234-0.0859 0-0.13281-0.0234-0.13281-0.0703 0-0.0312 0.0234-0.0703 0.10938-0.0703 0.10546 0 0.1914-8e-3 0.24609-0.0273 0.14062-0.0273 0.18359-0.15625 0.20703-0.35156 0.0312-0.28516 0.0312-0.81641 0.0312-1.4336z"></path><path d="m373.82 190.05c0-1.0234 0-1.2109-8e-3 -1.4258-0.0156-0.23047-0.0781-0.30078-0.30078-0.36328-0.0547-0.0156-0.17578-0.0234-0.27735-0.0234-0.0703 0-0.11718-0.0234-0.11718-0.0742 0-0.0469 0.0547-0.0625 0.15625-0.0625 0.36718 0 0.80859 0.0156 1.0078 0.0156 0.21875 0 1.7617 8e-3 1.8984 0 0.125-4e-3 0.23828-0.0312 0.29297-0.0391 0.0391-8e-3 0.0781-0.0312 0.10937-0.0312 0.043 0 0.0469 0.0312 0.0469 0.0664 0 0.0469-0.0391 0.125-0.0547 0.4336-8e-3 0.0703-0.0234 0.36328-0.0391 0.4414-8e-3 0.0312-0.0234 0.11329-0.0781 0.11329-0.0469 0-0.0547-0.0312-0.0547-0.0898 0-0.0469-0.0117-0.16406-0.0469-0.24219-0.0586-0.12109-0.11328-0.21484-0.46094-0.25-0.11719-0.0117-0.94922-0.0312-1.0938-0.0312-0.0312 0-0.0469 0.0273-0.0469 0.0664v1.6641c0 0.0391 0.0117 0.0703 0.0469 0.0703 0.16016 0 1.0625 0 1.2188-0.0195 0.16797-0.0117 0.26953-0.0312 0.33594-0.10156 0.0547-0.0469 0.0781-0.0859 0.10937-0.0859 0.0312 0 0.0547 0.0312 0.0547 0.0703s-0.0156 0.15234-0.0547 0.49218c-0.0156 0.13282-0.0312 0.40235-0.0312 0.44922 0 0.0547-0.0117 0.14844-0.0703 0.14844-0.0508 0-0.0664-0.0195-0.0664-0.0508-8e-3 -0.0742-8e-3 -0.16016-0.0234-0.24609-0.0391-0.13672-0.125-0.23829-0.38672-0.26172-0.12891-0.0195-0.91797-0.0312-1.0938-0.0312-0.0274 0-0.0391 0.0312-0.0391 0.0703v0.53906c0 0.22656-8e-3 0.80078 0 0.9961 0.0156 0.46093 0.23046 0.5625 0.9414 0.5625 0.1836 0 0.47656-8e-3 0.66016-0.0898 0.17187-0.0781 0.25-0.21875 0.30078-0.49609 0.0117-0.0703 0.0312-0.10156 0.0781-0.10156 0.0547 0 0.0625 0.0859 0.0625 0.15625 0 0.14843-0.0547 0.60937-0.0937 0.74218-0.0469 0.17969-0.11328 0.17969-0.375 0.17969-0.51953 0-0.9414-0.0117-1.2812-0.0273-0.33984-4e-3 -0.60156-0.0156-0.80859-0.0156-0.0781 0-0.23047 0.0117-0.39453 0.0117-0.16406 4e-3 -0.33984 0.0117-0.48047 0.0117-0.0898 0-0.13672-0.0234-0.13672-0.0703 0-0.0312 0.0234-0.0703 0.10938-0.0703 0.10547 0 0.18359-8e-3 0.24609-0.0273 0.14453-0.0273 0.18359-0.15625 0.20313-0.35156 0.0351-0.28516 0.0351-0.81641 0.0351-1.4336z"></path><path d="m386.28 190.79c0 0.71094 8e-3 1.2226 0.0156 1.3555 8e-3 0.16797 0.0234 0.40625 0.0781 0.47656 0.0899 0.12891 0.36328 0.26953 0.91016 0.26953 0.63281 0 1.1016-0.10937 1.5234-0.46094 0.44922-0.37109 0.58984-0.97265 0.58984-1.668 0-0.85156-0.33984-1.4102-0.64844-1.6758-0.64062-0.57422-1.4023-0.64453-1.9492-0.64453-0.14062 0-0.37109 0.0156-0.42578 0.0508-0.0625 0.0195-0.0859 0.0547-0.0859 0.13282-8e-3 0.22656-8e-3 0.78515-8e-3 1.3125zm-0.93359-0.7461c0-1.0234 0-1.2148-0.0117-1.4258-0.0117-0.23047-0.0781-0.30078-0.29687-0.36328-0.0547-0.0156-0.17579-0.0234-0.27735-0.0234-0.0742 0-0.12109-0.0234-0.12109-0.0703s0.0586-0.0664 0.16015-0.0664c0.36329 0 0.8086 0.0195 1.0039 0.0195 0.21484 0 0.71484-0.0195 1.1328-0.0195 0.8711 0 2.043 0 2.8008 0.76953 0.34766 0.34765 0.66016 0.91015 0.66016 1.7109 0 0.84766-0.36719 1.4844-0.76172 1.875-0.3164 0.31641-1.0508 0.78907-2.3359 0.78907-0.25 0-0.55468-0.0234-0.83203-0.0352-0.27343-0.0273-0.53125-0.043-0.70312-0.043-0.0781 0-0.23047 0.0117-0.39453 0.0117-0.16797 4e-3 -0.33985 0.0117-0.48438 0.0117-0.0859 0-0.13672-0.0234-0.13672-0.0703 0-0.0312 0.0274-0.0703 0.11328-0.0703 0.10157 0 0.17969-8e-3 0.2461-0.0273 0.14062-0.0273 0.18359-0.15625 0.20703-0.35156 0.0312-0.28516 0.0312-0.81641 0.0312-1.4336z"></path></g></g></svg> 